<svg width="24" height="16" viewBox="0 0 24 16" fill="none" xmlns="http://www.w3.org/2000/svg">
<path fill-rule="evenodd" clip-rule="evenodd" d="M0 1.08109C0 0.484021 0.484021 0 1.08109 0H22.9189C23.516 0 24 0.484021 24 1.08109C24 1.67816 23.516 2.16218 22.9189 2.16218H1.08109C0.48402 2.16218 0 1.67816 0 1.08109ZM0 8.00052C0 7.40345 0.484021 6.91943 1.08109 6.91943H22.9189C23.516 6.91943 24 7.40345 24 8.00052C24 8.5976 23.516 9.08162 22.9189 9.08162H1.08109C0.48402 9.08162 0 8.5976 0 8.00052ZM1.08109 13.8376C0.484021 13.8376 0 14.3217 0 14.9187C0 15.5158 0.48402 15.9998 1.08109 15.9998H22.9189C23.516 15.9998 24 15.5158 24 14.9187C24 14.3217 23.516 13.8376 22.9189 13.8376H1.08109Z" fill="white"/>
</svg>
