<svg width="33" height="26" viewBox="0 0 33 26" fill="none" xmlns="http://www.w3.org/2000/svg">
<path fill-rule="evenodd" clip-rule="evenodd" d="M16.9127 13.7553L30.312 24.1062L30.9806 23.3625L17.74 13.1343L30.6333 3.45581L29.9754 2.7027L16.9213 12.5019L3.32643 2L2.65789 2.74368L16.094 13.1229L2 23.7027L2.65789 24.4558L16.9127 13.7553Z" fill="#292929"/>
<path d="M30.312 24.1062L29.7007 24.8976L30.4352 25.465L31.0557 24.7748L30.312 24.1062ZM16.9127 13.7553L17.524 12.964L16.9213 12.4984L16.3123 12.9556L16.9127 13.7553ZM30.9806 23.3625L31.7242 24.0311L32.4445 23.2298L31.5919 22.5712L30.9806 23.3625ZM17.74 13.1343L17.1396 12.3346L16.0894 13.1229L17.1286 13.9257L17.74 13.1343ZM30.6333 3.45581L31.2336 4.25556L32.0949 3.60901L31.3864 2.79792L30.6333 3.45581ZM29.9754 2.7027L30.7285 2.04481L30.1176 1.34553L29.375 1.90295L29.9754 2.7027ZM16.9213 12.5019L16.31 13.2933L16.9126 13.7588L17.5216 13.3016L16.9213 12.5019ZM3.32643 2L3.93776 1.20862L3.20326 0.641225L2.58276 1.33146L3.32643 2ZM2.65789 2.74368L1.91422 2.07513L1.19391 2.87639L2.04656 3.53505L2.65789 2.74368ZM16.094 13.1229L16.6943 13.9227L17.7445 13.1343L16.7053 12.3315L16.094 13.1229ZM2 23.7027L1.39966 22.903L0.538352 23.5495L1.24689 24.3606L2 23.7027ZM2.65789 24.4558L1.90478 25.1137L2.51565 25.813L3.25823 25.2556L2.65789 24.4558ZM30.9233 23.3148L17.524 12.964L16.3013 14.5467L29.7007 24.8976L30.9233 23.3148ZM30.2369 22.694L29.5683 23.4377L31.0557 24.7748L31.7242 24.0311L30.2369 22.694ZM17.1286 13.9257L30.3692 24.1539L31.5919 22.5712L18.3513 12.3429L17.1286 13.9257ZM30.0329 2.65607L17.1396 12.3346L18.3403 13.9341L31.2336 4.25556L30.0329 2.65607ZM29.2223 3.36059L29.8802 4.11371L31.3864 2.79792L30.7285 2.04481L29.2223 3.36059ZM17.5216 13.3016L30.5757 3.50245L29.375 1.90295L16.3209 11.7021L17.5216 13.3016ZM2.7151 2.79138L16.31 13.2933L17.5326 11.7105L3.93776 1.20862L2.7151 2.79138ZM3.40157 3.41222L4.07011 2.66854L2.58276 1.33146L1.91422 2.07513L3.40157 3.41222ZM16.7053 12.3315L3.26922 1.9523L2.04656 3.53505L15.4826 13.9143L16.7053 12.3315ZM2.60034 24.5025L16.6943 13.9227L15.4936 12.3232L1.39966 22.903L2.60034 24.5025ZM3.411 23.7979L2.75311 23.0448L1.24689 24.3606L1.90478 25.1137L3.411 23.7979ZM16.3123 12.9556L2.05755 23.6561L3.25823 25.2556L17.513 14.5551L16.3123 12.9556Z" fill="#292929"/>
</svg>
